<svg xmlns="http://www.w3.org/2000/svg" width="61" height="37.008" viewBox="0 0 61 37.008">
  <g id="right-double-quotation" transform="translate(2177 1497.667) rotate(180)">
    <path id="패스_88" data-name="패스 88" d="M2179.156,1497.16a12.951,12.951,0,0,0,0-25.9,12.539,12.539,0,0,0-5,1.029c2.849-5.839,7.9-8.148,11.849-9.887a.648.648,0,0,0-.373-1.229c-9.573,1.754-14.176,6.031-16.17,9.665s-3.127,5.728-3.127,13.373A12.881,12.881,0,0,0,2179.156,1497.16Z" transform="translate(-15.479 0.007)" fill="none" stroke="#cacaca" stroke-width="1"/>
    <path id="패스_89" data-name="패스 89" d="M2129.323,1497.16a12.951,12.951,0,0,0,0-25.9,12.541,12.541,0,0,0-5,1.029c2.849-5.839,7.9-8.148,11.85-9.887a.648.648,0,0,0-.374-1.229c-9.573,1.754-14.176,6.031-16.171,9.665s-3.127,5.728-3.127,13.373A12.88,12.88,0,0,0,2129.323,1497.16Z" transform="translate(0 0.007)" fill="none" stroke="#cacaca" stroke-width="1"/>
  </g>
</svg>
