<svg xmlns="http://www.w3.org/2000/svg" xmlns:xlink="http://www.w3.org/1999/xlink" width="1920" height="400" viewBox="0 0 1920 400">
  <defs>
    <clipPath id="clip-path">
      <rect id="사각형_64" data-name="사각형 64" width="1920" height="400" transform="translate(-23636 -16808)" fill="#fff"/>
    </clipPath>
  </defs>
  <g id="마스크_그룹_25" data-name="마스크 그룹 25" transform="translate(23636 16808)" clip-path="url(#clip-path)">
    <path id="패스_98" data-name="패스 98" d="M3986.622,2424.58c-253,0-361,18.47-480,39.015s-227,39.014-480,39.014-361-18.469-480-39.014-227-39.015-480-39.015-361,18.47-480,39.015-227,39.014-480,39.014-361-18.469-480-39.014-227-39.015-480-39.015v745.9h3840Z" transform="translate(-23782.621 -19232.58)" fill="#101010"/>
    <path id="패스_98_-_윤곽선" data-name="패스 98 - 윤곽선" d="M2066.622,2425.58c-30.835,0-60.565.281-88.363.833-26.618.529-52.388,1.328-76.594,2.372-44.942,1.94-85.894,4.75-125.2,8.593-33.528,3.278-65.327,7.231-100.074,12.442-31.286,4.691-60.933,9.81-89.6,14.76s-58.336,10.072-89.646,14.767c-34.781,5.216-66.613,9.173-100.176,12.454-39.338,3.846-80.325,6.659-125.3,8.6-24.221,1.045-50.006,1.844-76.64,2.374-27.811.553-57.553.834-88.4.834s-60.592-.281-88.4-.834c-26.634-.53-52.419-1.328-76.64-2.374-44.979-1.941-85.967-4.754-125.3-8.6-33.563-3.281-65.4-7.239-100.176-12.454-31.311-4.7-60.967-9.815-89.646-14.767s-58.317-10.069-89.6-14.76c-34.747-5.211-66.546-9.165-100.074-12.442-39.3-3.843-80.254-6.653-125.2-8.593-24.206-1.044-49.976-1.843-76.594-2.372-27.5-.547-58.694-.7-89.173-.707l-.283,745.832,3840.093-2.055v-743.9c-30.479.006-59.865.286-87.363.833-26.618.529-52.388,1.328-76.594,2.372-44.942,1.94-85.894,4.75-125.2,8.593-33.528,3.278-65.327,7.231-100.074,12.442-31.286,4.691-60.933,9.81-89.6,14.76s-58.336,10.072-89.646,14.767c-34.781,5.216-66.612,9.173-100.176,12.454-39.338,3.846-80.325,6.659-125.3,8.6-24.221,1.045-50.006,1.844-76.64,2.374-27.811.553-57.553.834-88.4.834s-60.592-.281-88.4-.834c-26.634-.53-52.42-1.328-76.641-2.374-44.979-1.941-85.967-4.754-125.3-8.6-33.563-3.281-65.4-7.239-100.176-12.454-31.311-4.7-60.967-9.815-89.646-14.767s-58.317-10.069-89.6-14.76c-34.747-5.211-66.545-9.165-100.074-12.442-39.3-3.843-80.253-6.653-125.2-8.593-24.206-1.044-49.976-1.843-76.594-2.372-27.8-.553-57.528-.833-88.363-.833m-1920-1c253,0,361,18.47,480,39.015s227,39.014,480,39.014,361-18.469,480-39.014,227-39.015,480-39.015,361,18.47,480,39.015,227,39.014,480,39.014,361-18.469,480-39.014,227-39.015,480-39.015v745.9h-3840Z" transform="translate(-23782.621 -19232.58)" fill="#707070"/>
  </g>
</svg>
