<?xml version="1.0" encoding="UTF-8"?><svg xmlns="http://www.w3.org/2000/svg" viewBox="0 0 1920 400"><defs><style>.d{fill:#1c1c1c;}.e{fill:#707070;}.f{fill:none;}</style></defs><g id="a"/><g id="b"><g id="c"><g><path class="f" d="M960,78.03c253,0,361-18.47,480-39.01C1559,18.47,1667,0,1920,0H0C253,0,361,18.47,480,39.01c119,20.55,227,39.01,480,39.01Z"/><path class="d" d="M1920,400V4c-253.68,0-363.28,18.92-479.32,38.96-116.38,20.09-226.31,39.07-480.68,39.07s-364.3-18.98-480.68-39.07C363.28,22.92,253.68,4,0,4V400H1920Z"/><path class="e" d="M1440,39.01c-119,20.55-227,39.01-480,39.01s-361-18.47-480-39.01C361,18.47,253,0,0,0V4c253.68,0,363.28,18.92,479.32,38.96,116.38,20.09,226.31,39.07,480.68,39.07s364.3-18.98,480.68-39.07c116.04-20.03,225.64-38.96,479.32-38.96V0c-253,0-361,18.47-480,39.01Z"/></g></g></g></svg>