<?xml version="1.0" encoding="UTF-8"?><svg xmlns="http://www.w3.org/2000/svg" viewBox="0 0 1920 400"><defs><style>.d{fill:#707070;}.e{fill:#101010;}.f{fill:none;}</style></defs><g id="a"/><g id="b"><g id="c"><g><path class="f" d="M960,35.58c119,18.73,227,35.58,480,35.58s361-16.84,480-35.58h0V0H0V35.58C119,16.84,227,0,480,0s361,16.84,480,35.58Z"/><path class="e" d="M1920,400V39.63c-116.14,18.28-226.12,35.53-480,35.53s-364.25-17.3-480.62-35.62C843.32,21.26,733.7,4,480,4S116.68,21.26,.62,39.53c-.21,.03-.42,.07-.62,.1V400H1920Z"/><path class="d" d="M1920,35.58c-119,18.73-227,35.58-480,35.58s-361-16.84-480-35.58C841,16.84,733,0,480,0S119,16.84,0,35.58v4.05c.21-.03,.42-.07,.62-.1C116.68,21.26,226.3,4,480,4s363.32,17.26,479.38,35.53c116.37,18.32,226.29,35.62,480.62,35.62s363.86-17.24,480-35.53v-4.05h0Z"/></g></g></g></svg>