<?xml version="1.0" encoding="UTF-8"?><svg xmlns="http://www.w3.org/2000/svg" viewBox="0 0 1920 400"><defs><style>.d{fill:#707070;}.e{fill:#101010;}.f{fill:none;}</style></defs><g id="a"/><g id="b"><g id="c"><g><path class="f" d="M960,78.03c253,0,361-18.47,480-39.01C1558.97,18.47,1666.96,0,1919.84,0H.16C253.04,0,361.03,18.47,480,39.02c119,20.54,227,39.01,480,39.01Z"/><path class="e" d="M1920,400V2c-253.85,0-363.53,18.94-479.66,38.99-116.3,20.08-226.14,39.04-480.34,39.04s-364.04-18.96-480.34-39.04C363.53,20.94,253.85,2,0,2V400H1920Z"/><path class="d" d="M1919.84,0c-252.88,0-360.87,18.47-479.84,39.02-119,20.54-227,39.01-480,39.01s-361-18.47-480-39.01C361.03,18.47,253.04,0,.16,0h-.16V2c253.85,0,363.53,18.94,479.66,38.99,116.3,20.08,226.14,39.04,480.34,39.04s364.04-18.96,480.34-39.04c116.13-20.05,225.81-38.99,479.66-38.99V0h-.16Z"/></g></g></g></svg>