<?xml version="1.0" encoding="UTF-8"?><svg xmlns="http://www.w3.org/2000/svg" viewBox="0 0 1920 400"><defs><style>.d{fill:#707070;}.e{fill:none;}.f{fill:#161616;}</style></defs><g id="a"/><g id="b"><g id="c"><g><path class="e" d="M0,35.58C119,16.84,227,0,480,0s361,16.84,480,35.58,227,35.58,480,35.58,361-16.84,480-35.58V0H0V35.58H0Z"/><path class="f" d="M1920,400V37.6c-116.18,18.29-226.05,35.55-480,35.55s-364.02-17.29-480.31-35.6C843.55,19.27,733.86,2,480,2S116.44,19.27,.31,37.55c-.1,.02-.21,.03-.31,.05V400H1920Z"/><path class="d" d="M1440,71.15c-253,0-361-16.84-480-35.58S733,0,480,0,119,16.84,0,35.58H0v2.02c.1-.02,.21-.03,.31-.05C116.44,19.27,226.14,2,480,2s363.55,17.27,479.69,35.55c116.29,18.31,226.14,35.6,480.31,35.6s363.82-17.26,480-35.55v-2.02c-119,18.73-227,35.58-480,35.58Z"/></g></g></g></svg>