<svg xmlns="http://www.w3.org/2000/svg" xmlns:xlink="http://www.w3.org/1999/xlink" width="1920" height="400" viewBox="0 0 1920 400">
  <defs>
    <clipPath id="clip-path">
      <rect id="사각형_63" data-name="사각형 63" width="1920" height="400" transform="translate(-23636 -19029)" fill="#fff" stroke="#707070" stroke-width="1"/>
    </clipPath>
  </defs>
  <g id="마스크_그룹_24" data-name="마스크 그룹 24" transform="translate(23636 19029)" clip-path="url(#clip-path)">
    <path id="패스_93" data-name="패스 93" d="M3840,2266.476c-119,18.734-227,35.576-480,35.576s-361-16.842-480-35.576-227-35.576-480-35.576-361,16.842-480,35.576-227,35.576-480,35.576-361-16.842-480-35.576S733,2230.9,480,2230.9s-361,16.842-480,35.576V2630.9H3840Z" transform="translate(-23636 -21259.9)" fill="#101010"/>
    <path id="패스_93_-_윤곽선" data-name="패스 93 - 윤곽선" d="M480,2231.9c-61.011,0-114.97.956-164.96,2.922-44.944,1.768-85.9,4.329-125.2,7.831-33.53,2.987-65.33,6.59-100.078,11.339-30.982,4.235-62.317,9.211-90.723,13.681l-.979,681.361,3843.758-.58-.689-681.082c-28.322,4.456-59.73,9.308-90.616,13.529-34.78,4.753-66.61,8.36-100.172,11.35-39.336,3.5-80.322,6.068-125.3,7.837-50.018,1.967-104,2.924-165.04,2.924s-115.022-.957-165.04-2.924c-44.977-1.769-85.963-4.332-125.3-7.837-33.562-2.99-65.392-6.6-100.172-11.35-31.307-4.278-60.964-8.945-89.645-13.457s-58.315-9.176-89.6-13.452c-34.748-4.749-66.548-8.352-100.078-11.339-39.3-3.5-80.257-6.063-125.2-7.831-49.99-1.967-103.949-2.922-164.96-2.922s-114.97.956-164.96,2.922c-44.944,1.768-85.9,4.329-125.2,7.831-33.53,2.987-65.33,6.59-100.078,11.339-31.29,4.277-60.936,8.941-89.6,13.452s-58.338,9.179-89.645,13.457c-34.78,4.753-66.61,8.36-100.172,11.35-39.336,3.5-80.322,6.068-125.3,7.837-50.018,1.967-104,2.924-165.04,2.924s-115.022-.957-165.04-2.924c-44.977-1.769-85.963-4.332-125.3-7.837-33.562-2.99-65.392-6.6-100.172-11.35-31.307-4.278-60.964-8.945-89.645-13.457s-58.315-9.176-89.6-13.452c-34.748-4.749-66.548-8.352-100.078-11.339-39.3-3.5-80.257-6.063-125.2-7.831-49.99-1.967-103.949-2.922-164.96-2.922m0-1c253,0,361,16.832,480,35.556s227,35.556,480,35.556,361-16.833,480-35.556,227-35.556,480-35.556,361,16.832,480,35.556,227,35.556,480,35.556,361-16.833,480-35.556V2947H0V2266.457C119,2247.733,227,2230.9,480,2230.9Z" transform="translate(-23636 -21259.9)" fill="#707070"/>
  </g>
</svg>
